<svg width="198" height="198" xmlns="http://www.w3.org/2000/svg">

 <g>
  <title>background</title>
  <rect fill="none" id="canvas_background" height="200" width="200" y="-1" x="-1"/>
 </g>
 <g>
  <title>Layer 1</title>
  <rect y="68" id="svg_1" height="58" width="55" x="140" rx="8"/>
  <g id="svg_2" stroke-width="8" stroke="#000">
   <path id="svg_3" d="m135.5,122a8,8 0 0 0 8.5,-8.5"/>
   <rect id="svg_4" fill="none" height="50" width="190" rx="8" y="72" x="4"/>
  </g>
  <path id="svg_5" d="m23.906,101.641c0.953,-0.083 1.906,-0.167 2.859,-0.25c0.108,2.099 1.511,4.139 3.578,4.722c2.438,0.895 5.357,0.799 7.559,-0.658c1.49,-1.129 1.861,-3.674 0.324,-4.925c-1.557,-1.322 -3.685,-1.504 -5.576,-2.057c-2.343,-0.565 -4.912,-1.133 -6.611,-2.979c-1.805,-2.088 -1.627,-5.485 0.292,-7.443c2.041,-2.113 5.222,-2.55 8.02,-2.274c2.46,0.244 5.058,1.343 6.252,3.635c0.426,0.908 1.095,2.241 0.656,3.108c-0.888,0.173 -1.81,0.148 -2.715,0.245c-0.077,-2.084 -1.727,-4.073 -3.863,-4.234c-1.902,-0.317 -4.02,-0.252 -5.691,0.802c-1.398,0.989 -1.849,3.363 -0.381,4.494c1.281,1.01 2.962,1.199 4.482,1.642c2.66,0.627 5.602,1.118 7.596,3.158c2,2.188 1.893,5.84 -0.088,8.01c-2.01,2.32 -5.304,2.972 -8.237,2.713c-2.585,-0.147 -5.319,-1.024 -6.916,-3.184c-0.987,-1.288 -1.517,-2.905 -1.542,-4.523"/>
  <path id="svg_6" d="m45.953,109c0,-7.635 0,-15.271 0,-22.906c0.938,0 1.875,0 2.813,0c0,2.74 0,5.479 0,8.219c1.391,-1.721 3.69,-2.523 5.86,-2.236c1.975,0.154 4.03,1.371 4.513,3.402c0.504,1.973 0.278,4.02 0.33,6.04c0,2.495 0,4.989 0,7.484c-0.938,0 -1.875,0 -2.813,0c-0.009,-3.675 0.018,-7.351 -0.014,-11.03c-0.026,-1.342 -0.627,-2.835 -2,-3.282c-2.187,-0.802 -5.077,0.393 -5.609,2.773c-0.417,1.764 -0.216,3.586 -0.264,5.381c0,2.051 0,4.102 0,6.153c-0.938,0 -1.875,0 -2.813,0"/>
  <path id="svg_7" d="m63.781,89.328l0,-3.234l2.813,0l0,3.234l-2.813,0zm0,19.672l0,-16.594l2.813,0l0,16.594l-2.813,0z"/>
  <path id="svg_8" d="m82.25,103.656c0.969,0.12 1.938,0.24 2.906,0.359c-0.702,3.464 -4.348,5.767 -7.781,5.386c-3.235,-0.066 -6.43,-2.328 -7.06,-5.598c-0.843,-3.307 -0.404,-7.285 2.101,-9.784c3.082,-3 8.699,-2.618 11.235,0.892c1.374,1.85 1.676,4.267 1.578,6.51c-4.125,0 -8.25,0 -12.375,0c-0.142,2.889 2.267,6 5.346,5.658c1.881,-0.162 3.613,-1.566 4.045,-3.423m-9.234,-4.547c3.089,0 6.177,0 9.266,0c0.129,-2.774 -2.616,-5.422 -5.419,-4.713c-2.174,0.427 -3.912,2.474 -3.846,4.713"/>
  <path id="svg_9" d="m88.64,109l0,-22.906l2.813,0l0,22.906l-2.813,0z"/>
  <path id="svg_10" d="m106.59,109c0,-0.698 0,-1.396 0,-2.094c-1.412,2.442 -4.776,3.067 -7.233,1.949c-2.378,-1.02 -3.971,-3.403 -4.345,-5.924c-0.507,-2.761 -0.123,-5.768 1.389,-8.167c1.863,-2.705 5.968,-3.642 8.711,-1.741c0.422,0.228 1.028,1.144 1.294,1.018c-0.006,-2.649 -0.0001,-5.298 -0.003,-7.948c0.932,0 1.865,0 2.797,0c0,7.635 0,15.271 0,22.906c-0.87,0 -1.74,0 -2.61,0m-8.89,-8.281c-0.075,2.246 0.637,4.861 2.79,5.952c2,1.023 4.682,-0.047 5.488,-2.134c0.897,-1.996 0.746,-4.278 0.388,-6.382c-0.425,-1.95 -2.046,-3.804 -4.158,-3.805c-1.903,-0.065 -3.633,1.363 -4.099,3.181c-0.327,1.028 -0.394,2.116 -0.408,3.188"/>
  <path id="svg_11" d="m112.52,104.05c0.927,-0.146 1.854,-0.292 2.781,-0.438c0.126,1.69 1.513,3.244 3.239,3.365c1.398,0.212 3.01,0.12 4.12,-0.851c0.807,-0.749 1.1,-2.243 0.159,-3.01c-0.908,-0.723 -2.115,-0.812 -3.182,-1.172c-1.797,-0.485 -3.713,-0.848 -5.243,-1.97c-1.83,-1.551 -1.868,-4.679 -0.099,-6.293c1.577,-1.507 3.918,-1.784 6,-1.594c1.685,0.176 3.54,0.749 4.535,2.217c0.464,0.715 0.708,1.549 0.844,2.384c-0.917,0.125 -1.833,0.25 -2.75,0.375c-0.121,-1.569 -1.653,-2.762 -3.19,-2.695c-1.246,-0.082 -2.702,0.012 -3.608,0.982c-0.624,0.724 -0.543,1.971 0.314,2.481c0.998,0.706 2.269,0.757 3.389,1.173c1.754,0.512 3.647,0.848 5.141,1.965c1.686,1.476 1.728,4.244 0.396,5.966c-1.298,1.788 -3.597,2.417 -5.709,2.448c-1.466,-0.007 -2.984,-0.214 -4.299,-0.893c-1.599,-0.909 -2.585,-2.655 -2.84,-4.444"/>
  <g id="svg_12" fill="#fff">
   <path id="svg_13" d="m151.11,109l0,-22.906l3.03,0l0,22.906l-3.03,0z"/>
   <path id="svg_14" d="m158.55,97.844c-0.277,-4.765 2.335,-9.977 7.05,-11.551c4.902,-1.757 11.226,0.197 13.477,5.098c2.266,4.706 1.89,10.92 -1.767,14.833c-4.554,4.948 -13.81,3.976 -17.08,-1.954c-1.111,-1.946 -1.679,-4.188 -1.68,-6.426m3.125,0.047c-0.377,4.273 2.892,8.844 7.375,8.951c3.791,0.221 7.557,-2.653 7.997,-6.497c0.794,-3.731 0.139,-8.292 -3.107,-10.696c-3.788,-2.814 -10.05,-1.104 -11.591,3.444c-0.54,1.539 -0.642,3.181 -0.675,4.798"/>
  </g>
 </g>
</svg>